<svg width="15" height="14" viewBox="0 0 15 14" fill="none" xmlns="http://www.w3.org/2000/svg">
<path fill-rule="evenodd" clip-rule="evenodd" d="M3.79222 13.3997V4.72443H0.908737V13.3997H3.79222V13.3997ZM2.35047 3.53997C3.356 3.53997 3.98186 2.87381 3.98186 2.0413C3.96312 1.19005 3.356 0.542374 2.36954 0.542374C1.38319 0.542374 0.738281 1.19005 0.738281 2.0413C0.738281 2.87381 1.36401 3.53997 2.33167 3.53997H2.35041H2.35047Z" fill="white"/>
<path fill-rule="evenodd" clip-rule="evenodd" d="M5.39062 13.3999H8.27408V8.55528C8.27408 8.29601 8.29282 8.03699 8.36896 7.85164C8.57741 7.3336 9.05187 6.79708 9.84843 6.79708C10.8918 6.79708 11.3092 7.59262 11.3092 8.75886V13.3999H14.1924V8.42565C14.1924 5.761 12.7699 4.5211 10.8728 4.5211C9.31723 4.5211 8.63432 5.39057 8.25491 5.9828H8.27416V4.72467H5.3907C5.42854 5.53869 5.3907 13.3999 5.3907 13.3999H5.39062Z" fill="white"/>
</svg>
