<svg width="14" height="13" viewBox="0 0 14 13" fill="none" xmlns="http://www.w3.org/2000/svg">
<path fill-rule="evenodd" clip-rule="evenodd" d="M12.3954 2.77756C12.8141 2.53414 13.4349 1.73739 13.5883 1.10312C13.1852 1.38042 12.259 1.78412 11.8023 1.78412C11.2819 1.19973 10.5484 0.833984 9.7338 0.833984C8.15315 0.833984 6.87119 2.21325 6.87119 3.91592C6.87119 4.15212 6.89753 4.38204 6.9449 4.60224C4.80025 4.54358 2.29297 3.38579 0.881079 1.40456C0.0137386 3.02254 0.763978 4.82183 1.74895 5.47649C1.41237 5.50567 0.791303 5.43633 0.498636 5.13017C0.478247 6.20266 0.958491 7.62616 2.70664 8.14154C2.36975 8.33696 1.775 8.28112 1.51464 8.23815C1.60655 9.14626 2.7854 10.3311 4.0737 10.3311C3.61416 10.9026 2.04763 11.9415 0.109375 11.6099C1.42654 12.4738 2.96168 12.9739 4.58688 12.9739C9.20399 12.9739 12.7907 8.94394 12.5975 3.97112C12.5975 3.96547 12.5962 3.95921 12.5962 3.95513C12.5962 3.94133 12.5975 3.92753 12.5975 3.91592C12.5975 3.90024 12.5962 3.8855 12.5962 3.86919C13.0159 3.56084 13.5799 3.01377 13.9836 2.29292C13.7499 2.43157 13.0488 2.70823 12.3954 2.77756Z" fill="white"/>
</svg>
